<svg width="1728" height="1117" viewBox="0 0 1728 1117" fill="none" xmlns="http://www.w3.org/2000/svg">
<rect width="1728" height="1117" fill="#1E1E1E"/>
<rect width="1728" height="1117" rx="50" fill="#E1C5C5"/>
<rect x="859.971" y="1020.09" width="790" height="920" rx="50" transform="rotate(-179.836 859.971 1020.09)" fill="#C1A9A9"/>
<rect x="577" y="201" width="1030" height="740" rx="50" fill="#987777"/>
<rect x="331" y="304" width="581" height="540" rx="50" fill="#826161"/>
<rect x="0.5" y="-0.5" width="416" height="70" rx="35" transform="matrix(1 0 0 -1 971 755)" fill="#987777" stroke="black"/>
<rect x="0.5" y="-0.5" width="183" height="55" rx="27.5" transform="matrix(1 0 0 -1 982 843)" fill="#987777" stroke="black"/>
<rect x="-0.503499" y="-0.496476" width="608.421" height="226.048" rx="49.5" transform="matrix(-0.00702284 -0.999975 -0.999975 0.00702284 322.039 857.409)" fill="#C1A9A9" stroke="black"/>
<path d="M131.369 705.066C137.815 697.913 146.771 694.32 158.238 694.287C169.704 694.253 178.715 697.794 185.269 704.908C191.756 711.956 195.017 721.346 195.051 733.079C195.086 744.746 191.88 754.155 185.434 761.308C178.922 768.46 169.932 772.053 158.465 772.087C147.132 772.12 138.188 768.579 131.634 761.465C125.013 754.284 121.686 744.894 121.652 733.294C121.617 721.561 124.857 712.151 131.369 705.066ZM158.296 714.087C152.296 714.104 147.501 715.852 143.911 719.329C140.321 722.806 138.535 727.445 138.552 733.245C138.568 738.911 140.448 743.506 144.192 747.028C147.869 750.551 152.608 752.304 158.408 752.287C164.274 752.27 169.036 750.489 172.692 746.945C176.348 743.334 178.168 738.729 178.152 733.129C178.135 727.395 176.288 722.801 172.611 719.345C168.934 715.822 164.162 714.07 158.296 714.087ZM164.45 664.489L177.75 664.45L177.702 647.75C177.695 645.35 177.089 643.518 175.885 642.255C174.682 640.992 173.08 640.364 171.08 640.369C169.08 640.375 167.482 641.013 166.285 642.283C165.023 643.554 164.395 645.389 164.402 647.789L164.45 664.489ZM139.151 664.563L149.851 664.532L149.804 648.732C149.798 646.732 149.327 645.2 148.391 644.136C147.454 643.005 146.186 642.442 144.586 642.447C142.986 642.452 141.688 643.022 140.691 644.158C139.627 645.228 139.098 646.696 139.104 648.563L139.151 664.563ZM123.208 684.11L123.103 648.31C123.081 640.91 124.73 634.838 128.05 630.095C131.369 625.286 136.229 622.871 142.628 622.853C149.362 622.833 153.903 625.386 156.251 630.513C157.908 627.375 160.235 624.968 163.23 623.292C166.158 621.617 169.256 620.775 172.523 620.765C176.256 620.754 179.525 621.545 182.329 623.136C185.067 624.662 187.207 626.789 188.748 629.518C190.223 632.247 191.331 635.11 192.073 638.108C192.749 641.106 193.092 644.338 193.102 647.805L193.207 683.905L123.208 684.11ZM162.808 615.668L162.751 596.368C167.684 596.287 171.347 595.043 173.74 592.636C176.066 590.229 177.224 587.159 177.213 583.425C177.201 579.225 175.958 575.996 173.485 573.736C170.945 571.41 167.308 570.254 162.575 570.268L139.475 570.336L139.529 588.936L122.929 588.984L122.817 550.585L162.617 550.468C172.083 550.44 179.759 553.351 185.642 559.201C191.459 564.984 194.383 573.108 194.414 583.575C194.476 604.908 183.941 615.606 162.808 615.668ZM175.914 481.275L192.614 481.226L192.778 537.226L122.778 537.431L122.618 482.831L139.218 482.782L139.321 517.882L149.321 517.853L149.224 484.753L165.324 484.706L165.421 517.806L176.021 517.775L175.914 481.275ZM170.334 419.787L183.3 408.149C190.588 415.461 194.249 424.817 194.282 436.217C194.302 442.884 193.352 448.753 191.434 453.825C189.448 458.831 186.76 462.806 183.369 465.749C179.911 468.693 176.084 470.904 171.888 472.383C167.626 473.862 163.028 474.609 158.095 474.623C153.495 474.637 149.026 473.883 144.688 472.362C140.35 470.775 136.41 468.487 132.868 465.497C129.259 462.507 126.381 458.516 124.233 453.522C122.018 448.462 120.901 442.765 120.883 436.432C120.852 426.032 124.559 416.988 132.003 409.299L144.039 421.464C139.985 425.743 137.966 430.715 137.983 436.382C138.001 442.582 140.081 447.276 144.224 450.464C148.3 453.585 152.937 455.105 158.137 455.023C163.404 454.941 167.966 453.394 171.824 450.383C175.615 447.305 177.501 442.6 177.482 436.266C177.475 433.666 176.9 430.868 175.758 427.871C174.549 424.808 172.741 422.113 170.334 419.787ZM192.333 385.219L138.633 385.377L138.693 405.777L122.393 405.824L122.216 345.224L138.516 345.177L138.576 365.677L192.275 365.519L192.333 385.219ZM271.415 788.731L284.381 777.093C291.669 784.405 295.33 793.761 295.363 805.161C295.382 811.828 294.433 817.697 292.514 822.769C290.529 827.775 287.841 831.75 284.449 834.693C280.991 837.636 277.164 839.848 272.969 841.327C268.706 842.806 264.108 843.553 259.175 843.567C254.575 843.581 250.106 842.827 245.769 841.306C241.431 839.719 237.49 837.431 233.948 834.441C230.34 831.451 227.461 827.46 225.313 822.466C223.098 817.406 221.982 811.709 221.963 805.376C221.933 794.976 225.64 785.932 233.084 778.243L245.119 790.408C241.065 794.687 239.047 799.659 239.063 805.326C239.081 811.526 241.162 816.22 245.304 819.408C249.38 822.529 254.018 824.049 259.218 823.967C264.484 823.885 269.046 822.338 272.904 819.327C276.695 816.249 278.582 811.543 278.563 805.21C278.555 802.61 277.98 799.812 276.838 796.815C275.629 793.752 273.822 791.057 271.415 788.731ZM293.302 716.063L281.816 720.697L281.907 751.997L293.421 756.563L293.482 777.563L223.39 746.368L223.332 726.368L293.24 694.864L293.302 716.063ZM265.235 727.446L242.961 736.411L265.288 745.346L265.235 727.446ZM293.199 680.921L239.499 681.079L239.559 701.479L223.259 701.526L223.082 640.927L239.382 640.879L239.442 661.379L293.141 661.222L293.199 680.921ZM276.192 576.197L292.892 576.148L293.056 632.147L223.057 632.352L222.897 577.753L239.497 577.704L239.599 612.804L249.599 612.775L249.503 579.675L265.602 579.628L265.699 612.727L276.299 612.696L276.192 576.197ZM231.981 503.922L243.414 515.388C239.36 519.734 237.343 525.073 237.361 531.406C237.378 537.273 239.158 541.868 242.702 545.191C246.178 548.514 251.249 550.166 257.916 550.146C261.249 550.136 264.348 549.594 267.211 548.519C270.075 547.377 272.602 545.336 274.794 542.397C276.918 539.39 277.974 535.687 277.961 531.287C277.944 525.621 276.731 521.124 274.321 517.798L265.322 517.824L265.373 535.524L249.873 535.57L249.773 501.37L280.873 501.279C285.213 503.399 288.591 507.223 291.007 512.749C293.423 518.209 294.641 524.405 294.661 531.338C294.681 538.005 293.665 543.875 291.613 548.947C289.494 554.02 286.673 558.029 283.148 560.972C279.623 563.849 275.763 566.027 271.567 567.506C267.304 568.919 262.773 569.632 257.973 569.646C253.24 569.66 248.738 568.906 244.467 567.385C240.129 565.798 236.188 563.51 232.646 560.52C229.037 557.464 226.159 553.439 224.011 548.445C221.863 543.452 220.78 537.788 220.761 531.455C220.745 526.055 221.531 521.186 223.118 516.848C224.706 512.51 227.66 508.201 231.981 503.922ZM230.556 427.04C237.001 419.887 245.958 416.295 257.424 416.261C268.891 416.227 277.901 419.768 284.455 426.882C290.943 433.93 294.204 443.32 294.238 455.053C294.272 466.72 291.066 476.129 284.62 483.282C278.108 490.434 269.119 494.027 257.652 494.061C246.319 494.094 237.375 490.553 230.821 483.439C224.2 476.259 220.872 466.868 220.838 455.268C220.804 443.535 224.043 434.125 230.556 427.04ZM257.482 436.061C251.482 436.078 246.687 437.826 243.097 441.303C239.508 444.78 237.721 449.419 237.738 455.219C237.755 460.885 239.635 465.48 243.378 469.002C247.055 472.525 251.794 474.278 257.594 474.261C263.461 474.244 268.222 472.463 271.878 468.919C275.534 465.308 277.354 460.703 277.338 455.103C277.321 449.37 275.474 444.775 271.798 441.319C268.121 437.796 263.349 436.044 257.482 436.061ZM291.004 341.083L292.204 341.079L292.268 362.879L269.616 379.245L269.636 386.145L292.336 386.079L292.394 405.879L222.394 406.084L222.294 371.884C222.269 363.351 224.583 356.677 229.235 351.864C233.888 347.05 239.581 344.633 246.314 344.614C251.048 344.6 255.151 345.688 258.624 347.877C262.03 350.001 264.975 353.826 267.458 359.352L291.004 341.083ZM238.094 371.838L238.136 386.238L254.936 386.188L254.893 371.589C254.886 369.122 254.114 367.257 252.577 365.995C250.973 364.733 249.038 364.106 246.771 364.112C244.371 364.119 242.34 364.792 240.677 366.13C238.948 367.469 238.087 369.371 238.094 371.838ZM222.148 322.051L246.106 307.48L222.062 292.451L221.996 270.151L222.896 270.148L264.177 297.827L292.077 297.746L292.135 317.546L264.235 317.627L223.013 344.348L222.213 344.35L222.148 322.051Z" fill="#676262"/>
<rect x="0.5" y="-0.5" width="425" height="92" rx="46" transform="matrix(1 0 0 -1 418 599)" fill="#826161" stroke="black"/>
<path d="M484.46 587.3L464.76 587.38L464.476 517.381L484.176 517.301L484.46 587.3ZM557.146 587.005L556.977 545.305L539.163 566.578L535.663 566.592L518.078 545.563L518.247 587.163L498.647 587.242L498.362 517.243L519.062 517.159L537.558 540.784L555.862 517.009L576.462 516.925L576.746 586.925L557.146 587.005ZM643.831 586.652L639.184 575.171L607.884 575.298L603.331 586.817L582.331 586.902L613.446 516.775L633.446 516.694L665.031 586.566L643.831 586.652ZM632.417 558.598L623.426 536.335L614.517 558.671L632.417 558.598ZM729.927 525.601L718.473 537.048C714.124 532.999 708.782 530.987 702.449 531.013C696.582 531.037 691.989 532.822 688.67 536.369C685.351 539.849 683.705 544.923 683.732 551.589C683.746 554.923 684.292 558.021 685.37 560.883C686.515 563.745 688.559 566.27 691.501 568.458C694.51 570.579 698.214 571.631 702.614 571.613C708.281 571.59 712.776 570.372 716.099 567.958L716.063 558.958L698.363 559.03L698.3 543.53L732.499 543.391L732.626 574.491C730.51 578.833 726.691 582.215 721.167 584.638C715.71 587.06 709.515 588.285 702.582 588.313C695.915 588.34 690.044 587.331 684.969 585.285C679.894 583.172 675.883 580.355 672.935 576.834C670.054 573.312 667.871 569.454 666.388 565.26C664.97 560.999 664.252 556.469 664.232 551.669C664.213 546.935 664.962 542.432 666.478 538.16C668.06 533.82 670.344 529.877 673.329 526.332C676.381 522.719 680.403 519.836 685.394 517.682C690.386 515.529 696.048 514.439 702.381 514.413C707.781 514.391 712.651 515.172 716.991 516.754C721.331 518.336 725.643 521.285 729.927 525.601ZM799.791 569.318L799.859 586.017L743.86 586.245L743.575 516.246L798.175 516.024L798.242 532.624L763.142 532.766L763.183 542.766L796.283 542.632L796.348 558.732L763.248 558.866L763.292 569.466L799.791 569.318Z" fill="#533333"/>
<rect x="0.5" y="-0.5" width="324" height="70" rx="35" transform="matrix(1 0 0 -1 971 651)" fill="#987777" stroke="black"/>
<circle cx="1124" cy="615" r="12" fill="#D9D9D9"/>
<circle cx="1166" cy="615" r="12" fill="#D9D9D9"/>
<circle cx="1204" cy="615" r="12" fill="#D9D9D9"/>
<circle cx="1242" cy="615" r="12" fill="#D9D9D9"/>
<path d="M1005.39 618.955L1008.3 622.194C1006.48 624.018 1004.14 624.936 1001.29 624.947C999.621 624.954 998.154 624.718 996.885 624.24C995.633 623.745 994.639 623.074 993.902 622.227C993.165 621.364 992.611 620.407 992.24 619.359C991.869 618.294 991.681 617.145 991.676 615.911C991.671 614.761 991.859 613.644 992.238 612.559C992.633 611.474 993.204 610.488 993.951 609.602C994.697 608.699 995.694 607.978 996.942 607.44C998.206 606.885 999.63 606.604 1001.21 606.597C1003.81 606.587 1006.08 607.511 1008 609.37L1004.96 612.382C1003.89 611.37 1002.65 610.867 1001.23 610.872C999.681 610.879 998.508 611.4 997.712 612.437C996.933 613.456 996.554 614.616 996.576 615.916C996.598 617.233 996.986 618.373 997.74 619.337C998.511 620.283 999.688 620.754 1001.27 620.747C1001.92 620.745 1002.62 620.6 1003.37 620.314C1004.13 620.011 1004.81 619.558 1005.39 618.955ZM1025.59 608.923C1027.38 610.533 1028.28 612.771 1028.29 615.637C1028.3 618.504 1027.42 620.758 1025.64 622.398C1023.88 624.022 1021.53 624.84 1018.6 624.852C1015.68 624.864 1013.33 624.065 1011.54 622.455C1009.75 620.829 1008.85 618.583 1008.84 615.716C1008.83 612.883 1009.71 610.646 1011.49 609.006C1013.28 607.348 1015.63 606.514 1018.53 606.502C1021.46 606.49 1023.81 607.297 1025.59 608.923ZM1023.34 615.657C1023.33 614.157 1022.89 612.959 1022.02 612.063C1021.15 611.166 1019.99 610.721 1018.54 610.727C1017.13 610.733 1015.98 611.204 1015.1 612.141C1014.22 613.061 1013.78 614.246 1013.79 615.696C1013.79 617.163 1014.24 618.353 1015.13 619.266C1016.03 620.179 1017.18 620.633 1018.58 620.627C1020.02 620.621 1021.16 620.158 1022.03 619.238C1022.91 618.318 1023.34 617.124 1023.34 615.657ZM1030.82 606.877L1035.77 606.857L1035.83 620.157L1044.2 620.123L1044.22 624.323L1030.89 624.377L1030.82 606.877ZM1061.94 608.775C1063.73 610.385 1064.63 612.623 1064.64 615.489C1064.65 618.356 1063.77 620.61 1061.99 622.25C1060.23 623.874 1057.89 624.692 1054.95 624.704C1052.04 624.716 1049.68 623.917 1047.89 622.308C1046.1 620.682 1045.2 618.435 1045.19 615.569C1045.18 612.735 1046.06 610.498 1047.84 608.858C1049.63 607.2 1051.98 606.366 1054.88 606.354C1057.81 606.342 1060.16 607.149 1061.94 608.775ZM1059.69 615.51C1059.68 614.01 1059.25 612.811 1058.38 611.915C1057.51 611.018 1056.35 610.573 1054.9 610.579C1053.48 610.585 1052.33 611.056 1051.45 611.993C1050.57 612.913 1050.13 614.098 1050.14 615.548C1050.15 617.015 1050.59 618.205 1051.48 619.118C1052.38 620.031 1053.54 620.485 1054.94 620.479C1056.37 620.473 1057.52 620.01 1058.38 619.09C1059.26 618.17 1059.7 616.976 1059.69 615.51ZM1083.44 623.863L1083.45 624.163L1078 624.185L1073.9 618.527L1072.17 618.534L1072.2 624.209L1067.25 624.229L1067.17 606.729L1075.72 606.694C1077.86 606.686 1079.53 607.262 1080.73 608.424C1081.94 609.586 1082.54 611.008 1082.55 612.692C1082.55 613.875 1082.28 614.901 1081.74 615.77C1081.21 616.622 1080.25 617.359 1078.87 617.982L1083.44 623.863ZM1075.74 610.644L1072.14 610.659L1072.16 614.859L1075.81 614.844C1076.42 614.842 1076.89 614.648 1077.21 614.263C1077.52 613.862 1077.68 613.378 1077.67 612.811C1077.67 612.211 1077.5 611.704 1077.17 611.288C1076.83 610.856 1076.36 610.642 1075.74 610.644ZM1086.05 623.727C1085.57 623.329 1085.32 622.78 1085.32 622.08C1085.32 621.38 1085.56 620.838 1086.04 620.452C1086.54 620.05 1087.12 619.848 1087.79 619.845C1088.47 619.843 1089.06 620.04 1089.56 620.438C1090.06 620.819 1090.32 621.36 1090.32 622.06C1090.32 622.76 1090.07 623.311 1089.58 623.713C1089.08 624.098 1088.49 624.293 1087.8 624.295C1087.14 624.298 1086.55 624.109 1086.05 623.727ZM1086.02 616.953C1085.54 616.554 1085.29 616.005 1085.29 615.305C1085.29 614.605 1085.53 614.063 1086.01 613.678C1086.49 613.292 1087.07 613.098 1087.76 613.095C1088.44 613.093 1089.03 613.282 1089.54 613.663C1090.04 614.044 1090.29 614.585 1090.29 615.285C1090.29 615.985 1090.05 616.536 1089.55 616.938C1089.05 617.324 1088.46 617.518 1087.78 617.52C1087.09 617.523 1086.51 617.334 1086.02 616.953Z" fill="#533333"/>
<rect x="0.5" y="-0.5" width="231" height="58" rx="29" transform="matrix(1 0 0 -1 971 547)" fill="#987777" stroke="black"/>
<path d="M1009.57 514.863L1009.6 520.952L1014.57 520.932C1015.48 520.929 1016.19 520.646 1016.7 520.084C1017.21 519.498 1017.47 518.774 1017.46 517.91C1017.46 517.047 1017.2 516.325 1016.68 515.744C1016.17 515.139 1015.45 514.839 1014.54 514.842L1009.57 514.863ZM1014.59 526.777L1009.62 526.797L1009.65 533.412L1002.72 533.441L1002.62 508.941L1014.52 508.892C1017.67 508.88 1020.1 509.721 1021.81 511.418C1023.52 513.114 1024.38 515.234 1024.39 517.777C1024.4 520.391 1023.56 522.541 1021.86 524.228C1020.17 525.891 1017.74 526.741 1014.59 526.777ZM1050.21 532.827L1050.21 533.247L1042.58 533.278L1036.85 525.357L1034.43 525.367L1034.46 533.311L1027.53 533.34L1027.43 508.84L1039.4 508.791C1042.39 508.779 1044.73 509.586 1046.41 511.213C1048.1 512.839 1048.95 514.831 1048.96 517.187C1048.97 518.844 1048.59 520.281 1047.82 521.497C1047.08 522.69 1045.74 523.722 1043.81 524.593L1050.21 532.827ZM1039.43 514.321L1034.39 514.342L1034.41 520.222L1039.52 520.201C1040.38 520.197 1041.04 519.926 1041.48 519.388C1041.92 518.826 1042.14 518.148 1042.13 517.355C1042.13 516.515 1041.89 515.804 1041.43 515.223C1040.96 514.618 1040.29 514.318 1039.43 514.321ZM1060.23 533.207L1053.34 533.235L1053.24 508.735L1060.13 508.707L1060.23 533.207ZM1083.02 525.379L1087.1 529.912C1084.54 532.466 1081.27 533.751 1077.28 533.767C1074.94 533.777 1072.89 533.447 1071.11 532.777C1069.36 532.085 1067.97 531.145 1066.94 529.959C1065.9 528.75 1065.13 527.412 1064.61 525.944C1064.09 524.453 1063.83 522.844 1063.82 521.117C1063.81 519.507 1064.08 517.943 1064.61 516.424C1065.16 514.905 1065.96 513.525 1067 512.284C1068.05 511.02 1069.45 510.011 1071.19 509.257C1072.96 508.48 1074.96 508.087 1077.17 508.078C1080.81 508.063 1083.98 509.357 1086.67 511.959L1082.42 516.176C1080.92 514.759 1079.18 514.054 1077.2 514.063C1075.03 514.071 1073.38 514.801 1072.27 516.253C1071.18 517.68 1070.65 519.304 1070.68 521.124C1070.71 522.967 1071.25 524.563 1072.31 525.912C1073.39 527.238 1075.04 527.896 1077.25 527.887C1078.16 527.884 1079.14 527.681 1080.19 527.28C1081.26 526.856 1082.2 526.222 1083.02 525.379ZM1109.52 527.161L1109.55 533.006L1089.95 533.086L1089.85 508.586L1108.96 508.508L1108.98 514.318L1096.69 514.368L1096.71 517.868L1108.29 517.821L1108.32 523.456L1096.73 523.503L1096.75 527.213L1109.52 527.161Z" fill="#533333"/>
<rect x="0.5" y="-0.5" width="323" height="63" rx="31.5" transform="matrix(1 0 0 -1 971 454)" fill="#987777" stroke="black"/>
<path d="M1003.54 435.815L996.092 435.846L995.984 409.246L1016.39 409.163L1016.42 415.471L1003.46 415.524L1003.48 420.502L1015.64 420.452L1015.66 426.608L1003.5 426.658L1003.54 435.815ZM1041.69 429.314L1041.72 435.66L1020.44 435.747L1020.33 409.147L1041.08 409.063L1041.1 415.371L1027.76 415.425L1027.78 419.225L1040.36 419.174L1040.38 425.292L1027.8 425.343L1027.82 429.371L1041.69 429.314ZM1066.07 435.561L1064.3 431.198L1052.41 431.247L1050.68 435.624L1042.7 435.656L1054.52 409.008L1062.12 408.977L1074.12 435.528L1066.07 435.561ZM1061.73 424.901L1058.31 416.441L1054.93 424.928L1061.73 424.901ZM1079.42 435.507L1079.34 415.101L1071.59 415.133L1071.56 408.939L1094.59 408.845L1094.62 415.039L1086.83 415.071L1086.91 435.476L1079.42 435.507ZM1115.06 408.8L1122.55 408.769L1122.61 423.627C1122.65 427.528 1121.56 430.56 1119.34 432.723C1117.12 434.86 1114.05 435.936 1110.12 435.952C1106.17 435.968 1103.08 434.929 1100.87 432.836C1098.66 430.717 1097.55 427.656 1097.53 423.653L1097.47 408.871L1104.95 408.841L1105.01 423.623C1105.02 425.649 1105.47 427.142 1106.36 428.101C1107.25 429.06 1108.5 429.537 1110.09 429.53C1111.66 429.524 1112.89 429.037 1113.77 428.071C1114.68 427.079 1115.13 425.608 1115.12 423.658L1115.06 408.8ZM1152.3 434.754L1152.3 435.21L1144.02 435.244L1137.79 426.643L1135.17 426.654L1135.2 435.28L1127.68 435.311L1127.57 408.711L1140.57 408.658C1143.81 408.645 1146.35 409.521 1148.18 411.287C1150.01 413.053 1150.93 415.215 1150.94 417.774C1150.95 419.573 1150.54 421.132 1149.71 422.453C1148.9 423.748 1147.45 424.869 1145.35 425.815L1152.3 434.754ZM1140.59 414.662L1135.12 414.684L1135.15 421.068L1140.7 421.046C1141.63 421.042 1142.34 420.748 1142.82 420.163C1143.3 419.553 1143.54 418.817 1143.53 417.956C1143.53 417.044 1143.27 416.272 1142.76 415.641C1142.25 414.985 1141.53 414.658 1140.59 414.662ZM1176.95 428.764L1176.98 435.11L1155.7 435.197L1155.59 408.597L1176.34 408.513L1176.36 414.82L1163.03 414.875L1163.04 418.675L1175.62 418.624L1175.64 424.741L1163.07 424.793L1163.08 428.821L1176.95 428.764ZM1201.23 411.033L1197.53 415.798C1195.9 414.589 1193.82 413.989 1191.29 414C1190.28 414.004 1189.42 414.172 1188.71 414.504C1188.03 414.836 1187.69 415.332 1187.69 415.99C1187.69 416.826 1188.04 417.395 1188.72 417.696C1189.41 417.972 1190.53 418.183 1192.11 418.328C1193.55 418.475 1194.87 418.735 1196.06 419.11C1197.25 419.46 1198.38 419.962 1199.45 420.617C1200.54 421.271 1201.39 422.154 1202.01 423.266C1202.62 424.353 1202.93 425.631 1202.93 427.101C1202.94 429.026 1202.38 430.662 1201.24 432.009C1200.11 433.357 1198.68 434.325 1196.96 434.915C1195.27 435.479 1193.38 435.778 1191.3 435.812C1188.72 435.848 1186.53 435.553 1184.72 434.927C1182.92 434.275 1181.15 433.029 1179.39 431.186L1183.51 426.419C1185.57 428.412 1188.17 429.403 1191.31 429.39C1192.58 429.385 1193.59 429.178 1194.35 428.769C1195.11 428.336 1195.49 427.751 1195.48 427.017C1195.48 425.674 1193.99 424.87 1191.03 424.603C1189.41 424.457 1188.01 424.248 1186.85 423.974C1185.68 423.675 1184.55 423.223 1183.46 422.62C1182.39 422.016 1181.58 421.171 1181.02 420.084C1180.45 418.971 1180.17 417.617 1180.16 416.021C1180.15 413.386 1181.22 411.381 1183.37 410.004C1185.54 408.627 1188.17 407.932 1191.26 407.92C1195.22 407.904 1198.54 408.942 1201.23 411.033Z" fill="#533333"/>
<rect x="0.5" y="-0.5" width="623" height="82" rx="41" transform="matrix(1 0 0 -1 959 370)" fill="#987777" stroke="black"/>
<path d="M1034.25 307.713C1039.62 312.541 1042.32 319.256 1042.36 327.855C1042.39 336.455 1039.74 343.216 1034.41 348.138C1029.13 353.009 1022.09 355.463 1013.29 355.499C1004.54 355.534 997.484 353.138 992.115 348.31C986.745 343.432 984.042 336.693 984.007 328.093C983.973 319.593 986.62 312.882 991.95 307.96C997.33 302.988 1004.37 300.485 1013.07 300.449C1021.87 300.414 1028.93 302.835 1034.25 307.713ZM1027.51 327.916C1027.49 323.416 1026.17 319.821 1023.56 317.132C1020.95 314.442 1017.47 313.107 1013.12 313.124C1008.87 313.142 1005.43 314.556 1002.79 317.366C1000.15 320.127 998.839 323.682 998.857 328.032C998.875 332.432 1000.21 336.002 1002.88 338.741C1005.59 341.48 1009.04 342.841 1013.24 342.824C1017.54 342.806 1020.99 341.417 1023.58 338.657C1026.21 335.896 1027.52 332.316 1027.51 327.916ZM1064.71 332.49L1064.75 342.464L1077.28 342.414C1079.08 342.406 1080.45 341.951 1081.4 341.047C1082.34 340.143 1082.81 338.941 1082.81 337.441C1082.8 335.941 1082.32 334.743 1081.37 333.847C1080.41 332.901 1079.04 332.431 1077.24 332.439L1064.71 332.49ZM1064.63 313.515L1064.67 321.54L1076.52 321.491C1078.02 321.485 1079.16 321.131 1079.96 320.427C1080.81 319.724 1081.23 318.772 1081.23 317.572C1081.22 316.372 1080.79 315.399 1079.94 314.652C1079.13 313.856 1078.03 313.46 1076.63 313.466L1064.63 313.515ZM1049.96 301.574L1076.81 301.465C1082.36 301.443 1086.91 302.674 1090.47 305.16C1094.08 307.645 1095.9 311.288 1095.92 316.088C1095.94 321.137 1094.03 324.545 1090.19 326.311C1092.54 327.551 1094.35 329.294 1095.61 331.539C1096.87 333.734 1097.5 336.056 1097.51 338.506C1097.52 341.306 1096.93 343.759 1095.74 345.863C1094.6 347.918 1093.01 349.525 1090.96 350.683C1088.91 351.791 1086.77 352.625 1084.52 353.184C1082.27 353.693 1079.85 353.953 1077.25 353.964L1050.17 354.074L1049.96 301.574ZM1101.33 331.216L1115.8 331.157C1115.86 334.857 1116.8 337.603 1118.61 339.395C1120.42 341.138 1122.72 342.004 1125.52 341.992C1128.67 341.98 1131.09 341.045 1132.78 339.188C1134.53 337.281 1135.39 334.552 1135.37 331.002L1135.3 313.677L1121.35 313.734L1121.3 301.284L1150.1 301.167L1150.22 331.017C1150.25 338.117 1148.08 343.876 1143.69 348.293C1139.36 352.661 1133.27 354.861 1125.42 354.893C1109.42 354.958 1101.39 347.066 1101.33 331.216ZM1202.13 340.931L1202.18 353.456L1160.18 353.626L1159.97 301.127L1200.92 300.96L1200.97 313.41L1174.64 313.517L1174.67 321.017L1199.5 320.916L1199.55 332.991L1174.72 333.092L1174.76 341.042L1202.13 340.931ZM1248.24 336.693L1256.98 346.408C1251.5 351.88 1244.49 354.634 1235.94 354.668C1230.94 354.689 1226.54 353.982 1222.73 352.547C1218.98 351.062 1215.99 349.049 1213.78 346.508C1211.57 343.917 1209.91 341.049 1208.8 337.904C1207.68 334.708 1207.12 331.26 1207.1 327.56C1207.09 324.11 1207.65 320.758 1208.79 317.503C1209.98 314.249 1211.69 311.292 1213.93 308.633C1216.17 305.923 1219.16 303.761 1222.9 302.146C1226.69 300.481 1230.97 299.638 1235.72 299.619C1243.52 299.587 1250.3 302.36 1256.08 307.936L1246.96 316.973C1243.75 313.936 1240.02 312.426 1235.77 312.444C1231.12 312.463 1227.6 314.027 1225.21 317.137C1222.87 320.196 1221.74 323.676 1221.8 327.576C1221.87 331.525 1223.03 334.946 1225.3 337.837C1227.61 340.677 1231.14 342.088 1235.89 342.068C1237.84 342.061 1239.94 341.627 1242.18 340.768C1244.48 339.859 1246.5 338.5 1248.24 336.693ZM1274.19 353.163L1274.02 312.888L1258.72 312.95L1258.67 300.725L1304.12 300.541L1304.17 312.766L1288.8 312.828L1288.96 353.103L1274.19 353.163ZM1338.17 300.402L1360.48 329.037C1360.38 327.487 1360.21 323.913 1359.99 318.314L1359.92 300.314L1374.84 300.253L1375.06 352.753L1362.46 352.804L1340.44 324.618L1340.71 336.092L1340.78 352.892L1325.78 352.953L1325.57 300.453L1338.17 300.402ZM1425.37 352.548L1421.88 343.937L1398.41 344.033L1394.99 352.672L1379.24 352.736L1402.58 300.14L1417.58 300.079L1441.27 352.483L1425.37 352.548ZM1416.81 331.508L1410.06 314.81L1403.38 331.562L1416.81 331.508ZM1489.33 352.288L1489.21 321.013L1475.85 336.968L1473.22 336.978L1460.03 321.207L1460.16 352.406L1445.46 352.466L1445.24 299.967L1460.77 299.904L1474.64 317.622L1488.37 299.791L1503.82 299.728L1504.03 352.228L1489.33 352.288ZM1556.62 339.489L1556.67 352.014L1514.67 352.185L1514.46 299.685L1555.41 299.519L1555.46 311.969L1529.13 312.076L1529.16 319.576L1553.99 319.475L1554.04 331.55L1529.21 331.65L1529.25 339.6L1556.62 339.489Z" fill="#533333"/>
<path d="M920.249 127.264L920.303 140.564L937.003 140.496C939.403 140.486 941.234 139.879 942.496 138.674C943.757 137.469 944.384 135.866 944.376 133.866C944.368 131.866 943.728 130.269 942.457 129.074C941.185 127.812 939.349 127.186 936.949 127.196L920.249 127.264ZM920.146 101.964L920.19 112.664L935.99 112.6C937.989 112.592 939.521 112.119 940.584 111.181C941.713 110.243 942.275 108.974 942.268 107.374C942.262 105.774 941.69 104.477 940.552 103.481C939.481 102.419 938.013 101.892 936.146 101.899L920.146 101.964ZM900.581 86.0438L936.381 85.8982C943.781 85.8681 949.854 87.5101 954.601 90.8241C959.415 94.1379 961.834 98.9948 961.86 105.395C961.888 112.128 959.34 116.672 954.216 119.026C957.356 120.68 959.765 123.003 961.444 125.997C963.123 128.923 963.969 132.02 963.982 135.286C963.997 139.02 963.21 142.29 961.622 145.096C960.1 147.836 957.975 149.978 955.248 151.522C952.521 153 949.658 154.111 946.661 154.857C943.664 155.536 940.432 155.882 936.966 155.896L900.866 156.043L900.581 86.0438ZM1026.52 155.532L1021.87 144.051L990.572 144.178L986.019 155.697L965.019 155.782L996.134 85.6552L1016.13 85.5738L1047.72 155.446L1026.52 155.532ZM1015.1 127.478L1006.11 105.215L997.205 127.551L1015.1 127.478ZM1101.87 133.126L1113.52 146.078C1106.22 153.375 1096.87 157.046 1085.47 157.092C1078.8 157.12 1072.93 156.177 1067.86 154.264C1062.85 152.284 1058.87 149.601 1055.92 146.213C1052.98 142.758 1050.76 138.933 1049.28 134.739C1047.79 130.479 1047.04 125.882 1047.02 120.949C1047 116.349 1047.75 111.879 1049.27 107.539C1050.85 103.199 1053.13 99.2568 1056.12 95.7113C1059.1 92.0991 1063.09 89.2162 1068.08 87.0626C1073.14 84.842 1078.84 83.7188 1085.17 83.6931C1095.57 83.6508 1104.62 87.3473 1112.32 94.7828L1100.17 106.832C1095.88 102.783 1090.91 100.77 1085.24 100.793C1079.04 100.818 1074.35 102.904 1071.17 107.05C1068.05 111.13 1066.53 115.769 1066.62 120.969C1066.71 126.235 1068.26 130.796 1071.28 134.65C1074.36 138.437 1079.07 140.318 1085.4 140.293C1088 140.282 1090.8 139.704 1093.79 138.558C1096.86 137.346 1099.55 135.535 1101.87 133.126ZM1183.28 84.8941L1183.28 86.0941L1155.02 119.309C1166.81 132.195 1177.12 143.653 1185.96 153.684L1185.96 154.884L1161.46 154.983L1141.37 131.765L1141.46 155.065L1121.66 155.145L1121.38 85.1458L1141.18 85.0653L1141.27 108.065C1143.73 104.988 1149.83 97.2969 1159.58 84.9905L1183.28 84.8941ZM1249.43 93.9251L1237.98 105.372C1233.63 101.323 1228.29 99.3112 1221.95 99.3369C1216.09 99.3608 1211.49 101.146 1208.17 104.693C1204.85 108.173 1203.21 113.247 1203.24 119.913C1203.25 123.247 1203.8 126.344 1204.87 129.207C1206.02 132.069 1208.06 134.594 1211 136.782C1214.01 138.903 1217.72 139.954 1222.12 139.937C1227.78 139.914 1232.28 138.695 1235.6 136.282L1235.57 127.282L1217.87 127.354L1217.8 111.854L1252 111.715L1252.13 142.815C1250.01 147.157 1246.19 150.539 1240.67 152.961C1235.21 155.383 1229.02 156.609 1222.09 156.637C1215.42 156.664 1209.55 155.654 1204.47 153.608C1199.4 151.496 1195.39 148.679 1192.44 145.157C1189.56 141.636 1187.37 137.778 1185.89 133.584C1184.47 129.323 1183.76 124.792 1183.74 119.993C1183.72 115.259 1184.46 110.756 1185.98 106.483C1187.56 102.143 1189.85 98.2008 1192.83 94.6553C1195.88 91.0429 1199.91 88.1598 1204.9 86.0062C1209.89 83.8525 1215.55 82.7628 1221.88 82.737C1227.28 82.7151 1232.15 83.4953 1236.49 85.0776C1240.83 86.66 1245.15 89.6092 1249.43 93.9251ZM1328.16 153.105L1328.16 154.305L1306.36 154.394L1289.97 131.761L1283.07 131.789L1283.16 154.488L1263.36 154.569L1263.08 84.5695L1297.28 84.4304C1305.81 84.3957 1312.49 86.7019 1317.31 91.349C1322.13 95.9962 1324.55 101.686 1324.58 108.42C1324.59 113.153 1323.51 117.257 1321.33 120.733C1319.21 124.142 1315.38 127.09 1309.86 129.58L1328.16 153.105ZM1297.34 100.23L1282.94 100.289L1283.01 117.089L1297.61 117.029C1300.08 117.019 1301.94 116.245 1303.2 114.707C1304.46 113.101 1305.09 111.166 1305.08 108.899C1305.07 106.499 1304.39 104.468 1303.05 102.807C1301.71 101.079 1299.81 100.22 1297.34 100.23ZM1399.45 92.115C1406.61 98.5526 1410.22 107.505 1410.26 118.971C1410.31 130.438 1406.78 139.452 1399.67 146.015C1392.63 152.51 1383.25 155.781 1371.51 155.829C1359.85 155.877 1350.43 152.681 1343.27 146.244C1336.11 139.74 1332.51 130.754 1332.46 119.288C1332.42 107.954 1335.95 99.0066 1343.06 92.4443C1350.23 85.8151 1359.62 82.4769 1371.21 82.4297C1382.95 82.382 1392.36 85.6104 1399.45 92.115ZM1390.46 119.052C1390.44 113.052 1388.69 108.259 1385.21 104.673C1381.72 101.087 1377.08 99.306 1371.28 99.3296C1365.62 99.3526 1361.02 101.238 1357.51 104.986C1353.99 108.667 1352.24 113.407 1352.26 119.207C1352.29 125.074 1354.07 129.833 1357.62 133.485C1361.24 137.137 1365.84 138.952 1371.44 138.929C1377.18 138.906 1381.77 137.054 1385.22 133.373C1388.74 129.692 1390.49 124.918 1390.46 119.052ZM1465.7 83.8455L1485.4 83.7653L1485.56 122.865C1485.67 133.131 1482.8 141.11 1476.96 146.8C1471.11 152.424 1463.02 155.257 1452.69 155.299C1442.29 155.341 1434.18 152.608 1428.36 147.098C1422.54 141.522 1419.6 133.467 1419.56 122.933L1419.4 84.0338L1439.1 83.9536L1439.26 122.853C1439.28 128.187 1440.46 132.115 1442.81 134.639C1445.15 137.163 1448.42 138.416 1452.62 138.399C1456.76 138.382 1459.98 137.102 1462.31 134.56C1464.7 131.95 1465.88 128.078 1465.86 122.945L1465.7 83.8455ZM1515.42 83.5432L1545.18 121.723C1545.04 119.656 1544.82 114.891 1544.52 107.425L1544.42 83.4253L1564.32 83.3444L1564.61 153.344L1547.81 153.412L1518.45 115.831L1518.82 131.13L1518.91 153.53L1498.91 153.611L1498.62 83.6116L1515.42 83.5432ZM1578.51 83.2867L1608.51 83.1647C1620.37 83.1164 1629.45 86.3129 1635.74 92.754C1642.04 99.1285 1645.2 107.382 1645.25 117.516C1645.29 127.782 1642.19 136.295 1635.95 143.054C1629.78 149.745 1620.72 153.116 1608.79 153.164L1578.79 153.286L1578.51 83.2867ZM1598.17 99.7069L1598.32 136.507L1608.72 136.464C1614.59 136.44 1618.88 134.623 1621.6 131.012C1624.32 127.334 1625.67 122.795 1625.64 117.395C1625.62 112.195 1624.21 107.934 1621.39 104.612C1618.58 101.291 1614.31 99.6412 1608.57 99.6646L1598.17 99.7069Z" fill="#533333"/>
<path d="M1003.74 711.362L1003.77 717.974L1009.16 717.952C1010.15 717.948 1010.92 717.641 1011.48 717.03C1012.03 716.395 1012.31 715.608 1012.3 714.671C1012.3 713.734 1012.02 712.949 1011.46 712.318C1010.9 711.662 1010.12 711.336 1009.14 711.34L1003.74 711.362ZM1009.19 724.298L1003.79 724.32L1003.82 731.502L996.298 731.532L996.19 704.932L1009.11 704.88C1012.53 704.866 1015.17 705.78 1017.03 707.622C1018.88 709.464 1019.82 711.765 1019.83 714.526C1019.84 717.364 1018.92 719.698 1017.08 721.53C1015.24 723.336 1012.61 724.259 1009.19 724.298ZM1022.33 712.654L1028.6 712.629L1029.03 714.679C1029.96 713.003 1031.48 712.161 1033.58 712.152C1035.6 712.144 1037.25 712.809 1038.53 714.146L1035.73 719.212C1034.79 718.456 1033.74 718.08 1032.58 718.085C1031.64 718.088 1030.87 718.396 1030.26 719.006C1029.66 719.591 1029.36 720.466 1029.36 721.632L1029.4 731.398L1022.41 731.426L1022.33 712.654ZM1049.46 712.126C1052.48 712.114 1055.01 712.939 1057.07 714.603C1059.16 716.266 1060.2 718.707 1060.22 721.924C1060.23 725.116 1059.18 727.552 1057.05 729.233C1054.96 730.914 1052.45 731.76 1049.54 731.772C1048.15 731.777 1046.82 731.593 1045.55 731.218C1044.31 730.818 1043.18 730.24 1042.16 729.484C1041.14 728.728 1040.33 727.705 1039.72 726.416C1039.1 725.126 1038.79 723.658 1038.79 722.011C1038.78 719.807 1039.29 717.943 1040.32 716.419C1041.38 714.869 1042.69 713.775 1044.26 713.135C1045.83 712.47 1047.56 712.134 1049.46 712.126ZM1049.52 726.034C1050.68 726.029 1051.62 725.645 1052.33 724.882C1053.03 724.094 1053.38 723.117 1053.38 721.952C1053.37 720.812 1053.01 719.851 1052.3 719.068C1051.61 718.26 1050.68 717.859 1049.48 717.864C1048.29 717.869 1047.35 718.278 1046.64 719.091C1045.96 719.88 1045.62 720.844 1045.63 721.984C1045.63 723.124 1045.98 724.085 1046.66 724.867C1047.38 725.65 1048.33 726.039 1049.52 726.034ZM1076.61 714.029L1076.57 704.606L1083.56 704.577L1083.67 731.177L1077.44 731.202L1077.12 729.189C1076.37 730.054 1075.43 730.678 1074.32 731.063C1073.21 731.447 1072.08 731.617 1070.94 731.571C1068.18 731.405 1066.05 730.489 1064.55 728.823C1063.07 727.157 1062.33 724.842 1062.31 721.878C1062.3 718.99 1063.13 716.63 1064.79 714.8C1066.48 712.969 1068.68 712.048 1071.39 712.037C1073.77 712.027 1075.51 712.691 1076.61 714.029ZM1073.01 717.692C1071.92 717.697 1071.03 718.08 1070.32 718.843C1069.61 719.581 1069.26 720.583 1069.27 721.849C1069.27 723.116 1069.63 724.115 1070.34 724.847C1071.06 725.579 1071.96 725.942 1073.05 725.938C1074.16 725.934 1075.06 725.537 1075.74 724.749C1076.45 723.961 1076.8 723.047 1076.79 722.009C1076.79 720.793 1076.45 719.768 1075.79 718.935C1075.13 718.102 1074.2 717.687 1073.01 717.692ZM1087.45 712.389L1094.44 712.361L1094.49 722.735C1094.49 723.799 1094.75 724.583 1095.26 725.088C1095.77 725.592 1096.39 725.843 1097.12 725.84C1098.03 725.836 1098.79 725.542 1099.4 724.957C1100.03 724.372 1100.34 723.496 1100.34 722.331L1100.3 712.337L1107.21 712.309L1107.29 731.081L1101.09 731.106L1100.78 729.055C1099.32 730.784 1097.35 731.628 1094.86 731.587C1092.66 731.571 1090.88 730.882 1089.54 729.519C1088.19 728.156 1087.51 725.917 1087.5 722.801L1087.45 712.389ZM1124.74 724.018L1128.75 728.182C1126.38 730.319 1123.8 731.394 1121.01 731.405C1119.59 731.411 1118.26 731.239 1117.02 730.889C1115.78 730.514 1114.65 729.962 1113.63 729.231C1112.61 728.475 1111.81 727.465 1111.22 726.201C1110.64 724.911 1110.34 723.418 1110.33 721.72C1110.32 720.074 1110.61 718.603 1111.19 717.309C1111.79 716.014 1112.58 714.985 1113.57 714.221C1114.58 713.432 1115.69 712.845 1116.91 712.46C1118.15 712.049 1119.45 711.841 1120.82 711.836C1123.78 711.824 1126.24 712.789 1128.2 714.732L1124.49 718.775C1123.6 717.866 1122.52 717.415 1121.26 717.42C1119.97 717.425 1118.95 717.835 1118.22 718.648C1117.52 719.462 1117.17 720.489 1117.17 721.731C1117.18 722.82 1117.53 723.743 1118.25 724.5C1118.98 725.232 1119.99 725.595 1121.25 725.59C1122.62 725.584 1123.78 725.06 1124.74 724.018ZM1132.68 707.645L1139.63 706.857L1139.65 712.291L1143.87 712.274L1143.89 717.632L1139.63 717.649L1139.66 723.805C1139.69 725.021 1140.31 725.626 1141.53 725.622C1142.26 725.619 1142.95 725.4 1143.58 724.967L1145.12 730.129C1143.65 730.971 1141.86 731.396 1139.73 731.405C1137.63 731.413 1135.93 730.838 1134.63 729.678C1133.33 728.518 1132.7 726.569 1132.74 723.833L1132.72 717.677L1129.72 717.69L1129.69 712.332L1132.7 712.319L1132.68 707.645ZM1156.65 704.28L1168.05 704.234C1172.56 704.215 1176.01 705.43 1178.4 707.877C1180.79 710.3 1182 713.436 1182.01 717.287C1182.03 721.188 1180.85 724.423 1178.48 726.991C1176.13 729.534 1172.69 730.815 1168.16 730.833L1156.76 730.88L1156.65 704.28ZM1164.12 710.52L1164.18 724.503L1168.13 724.487C1170.36 724.478 1171.99 723.788 1173.03 722.415C1174.06 721.018 1174.57 719.293 1174.56 717.241C1174.55 715.265 1174.02 713.646 1172.95 712.384C1171.88 711.121 1170.25 710.495 1168.08 710.503L1164.12 710.52ZM1191.2 718.845L1198 718.818C1197.95 717.881 1197.39 717.224 1196.32 716.849C1195.26 716.448 1194.17 716.439 1193.05 716.824C1191.97 717.208 1191.35 717.882 1191.2 718.845ZM1194.51 711.498C1197.96 711.484 1200.64 712.55 1202.55 714.695C1204.48 716.815 1205.06 719.676 1204.29 723.276L1191.18 723.33C1191.41 724.089 1191.95 724.682 1192.78 725.109C1193.62 725.511 1194.48 725.71 1195.37 725.707C1197.24 725.699 1198.85 725.186 1200.19 724.167L1203.63 727.991C1201.4 730.077 1198.56 731.128 1195.09 731.142C1191.9 731.155 1189.27 730.355 1187.21 728.742C1185.15 727.103 1184.12 724.663 1184.1 721.42C1184.09 718.228 1185.12 715.78 1187.19 714.074C1189.26 712.368 1191.7 711.509 1194.51 711.498ZM1206.24 728.702L1208.5 723.601C1210.46 724.86 1212.68 725.548 1215.16 725.664C1216.43 725.659 1217.06 725.352 1217.06 724.744C1217.06 724.162 1216.4 723.822 1215.08 723.726C1214.09 723.705 1213.15 723.582 1212.26 723.358C1211.38 723.133 1210.51 722.795 1209.68 722.342C1208.86 721.89 1208.22 721.259 1207.73 720.45C1207.25 719.642 1207 718.693 1207 717.603C1206.99 715.501 1207.81 713.952 1209.45 712.957C1211.12 711.937 1213.18 711.422 1215.64 711.412C1218.73 711.399 1221.29 712.149 1223.32 713.661L1220.37 717.853C1219.87 717.526 1219.14 717.25 1218.2 717.026C1217.27 716.801 1216.42 716.704 1215.66 716.732C1214.54 716.737 1213.99 717.043 1213.99 717.651C1213.99 718.233 1214.46 718.536 1215.4 718.557C1221.15 718.711 1224.03 720.764 1224.05 724.716C1224.06 726.185 1223.63 727.416 1222.77 728.407C1221.94 729.399 1220.89 730.099 1219.63 730.51C1218.36 730.92 1216.93 731.129 1215.34 731.135C1213.66 731.142 1211.99 730.934 1210.32 730.51C1208.64 730.061 1207.29 729.458 1206.24 728.702ZM1240.34 723.548L1244.34 727.711C1241.97 729.849 1239.39 730.924 1236.61 730.935C1235.19 730.941 1233.86 730.769 1232.61 730.419C1231.37 730.044 1230.24 729.491 1229.22 728.761C1228.21 728.005 1227.41 726.995 1226.82 725.731C1226.23 724.441 1225.93 722.948 1225.93 721.25C1225.92 719.604 1226.2 718.133 1226.78 716.839C1227.39 715.544 1228.18 714.515 1229.16 713.751C1230.17 712.962 1231.29 712.374 1232.5 711.989C1233.74 711.579 1235.04 711.371 1236.41 711.366C1239.38 711.353 1241.84 712.319 1243.8 714.262L1240.09 718.305C1239.2 717.396 1238.12 716.945 1236.85 716.95C1235.56 716.955 1234.55 717.365 1233.82 718.178C1233.11 718.992 1232.76 720.019 1232.77 721.26C1232.77 722.35 1233.13 723.273 1233.84 724.03C1234.58 724.762 1235.58 725.125 1236.85 725.12C1238.22 725.114 1239.38 724.59 1240.34 723.548ZM1246.62 711.742L1252.89 711.717L1253.32 713.767C1254.25 712.091 1255.76 711.249 1257.86 711.24C1259.89 711.232 1261.54 711.897 1262.81 713.234L1260.02 718.3C1259.08 717.543 1258.03 717.168 1256.86 717.172C1255.93 717.176 1255.15 717.483 1254.55 718.094C1253.94 718.679 1253.64 719.554 1253.65 720.72L1253.69 730.485L1246.7 730.514L1246.62 711.742ZM1264.1 706.845C1264.1 705.73 1264.49 704.867 1265.27 704.256C1266.06 703.62 1266.98 703.299 1268.04 703.295C1269.11 703.291 1270.02 703.603 1270.78 704.234C1271.57 704.839 1271.97 705.698 1271.97 706.813C1271.98 707.902 1271.59 708.765 1270.8 709.402C1270.02 710.013 1269.11 710.321 1268.07 710.325C1267.01 710.329 1266.08 710.029 1265.29 709.424C1264.51 708.794 1264.11 707.934 1264.1 706.845ZM1264.62 730.441L1271.65 730.412L1271.57 711.945L1264.54 711.973L1264.62 730.441ZM1282.74 728.771L1282.78 738.195L1275.78 738.224L1275.68 711.624L1281.91 711.599L1282.22 713.611C1282.98 712.747 1283.91 712.122 1285.02 711.738C1286.14 711.353 1287.26 711.184 1288.4 711.23C1291.17 711.396 1293.28 712.312 1294.76 713.978C1296.26 715.644 1297.02 717.959 1297.03 720.923C1297.04 723.811 1296.2 726.17 1294.51 728.001C1292.85 729.832 1290.66 730.753 1287.95 730.764C1285.57 730.774 1283.83 730.11 1282.74 728.771ZM1286.33 725.109C1287.42 725.104 1288.32 724.733 1289.03 723.996C1289.73 723.233 1290.08 722.218 1290.08 720.951C1290.07 719.685 1289.71 718.685 1289 717.954C1288.29 717.222 1287.39 716.858 1286.3 716.863C1285.18 716.867 1284.27 717.264 1283.57 718.052C1282.89 718.84 1282.55 719.753 1282.55 720.792C1282.56 722.008 1282.89 723.033 1283.55 723.866C1284.22 724.699 1285.14 725.113 1286.33 725.109ZM1301.6 706.958L1308.55 706.17L1308.57 711.604L1312.79 711.587L1312.81 716.945L1308.55 716.962L1308.58 723.118C1308.61 724.334 1309.23 724.939 1310.45 724.935C1311.18 724.932 1311.87 724.713 1312.5 724.28L1314.04 729.442C1312.57 730.284 1310.78 730.709 1308.65 730.718C1306.55 730.726 1304.85 730.151 1303.55 728.991C1302.25 727.831 1301.62 725.882 1301.66 723.146L1301.64 716.99L1298.64 717.003L1298.62 711.645L1301.62 711.632L1301.6 706.958ZM1315.91 706.634C1315.9 705.52 1316.29 704.657 1317.08 704.045C1317.86 703.409 1318.78 703.088 1319.85 703.084C1320.91 703.08 1321.82 703.393 1322.59 704.023C1323.37 704.628 1323.77 705.488 1323.78 706.602C1323.78 707.692 1323.39 708.554 1322.61 709.191C1321.82 709.802 1320.91 710.11 1319.88 710.114C1318.81 710.118 1317.89 709.818 1317.1 709.213C1316.31 708.583 1315.91 707.724 1315.91 706.634ZM1316.42 730.23L1323.45 730.202L1323.38 711.734L1316.35 711.762L1316.42 730.23ZM1337.17 710.956C1340.18 710.944 1342.72 711.769 1344.78 713.433C1346.86 715.096 1347.91 717.537 1347.92 720.754C1347.94 723.946 1346.88 726.382 1344.76 728.063C1342.67 729.744 1340.16 730.59 1337.25 730.602C1335.85 730.607 1334.52 730.423 1333.26 730.048C1332.01 729.648 1330.88 729.069 1329.87 728.314C1328.85 727.558 1328.04 726.535 1327.42 725.246C1326.81 723.956 1326.5 722.488 1326.49 720.841C1326.48 718.637 1326.99 716.773 1328.03 715.249C1329.08 713.699 1330.4 712.605 1331.97 711.965C1333.53 711.3 1335.27 710.964 1337.17 710.956ZM1337.22 724.864C1338.39 724.859 1339.33 724.475 1340.03 723.712C1340.74 722.924 1341.09 721.947 1341.08 720.782C1341.08 719.642 1340.72 718.681 1340.01 717.898C1339.32 717.09 1338.38 716.689 1337.19 716.694C1336 716.699 1335.05 717.108 1334.35 717.921C1333.67 718.709 1333.33 719.673 1333.33 720.813C1333.34 721.953 1333.68 722.915 1334.37 723.697C1335.08 724.48 1336.03 724.869 1337.22 724.864ZM1370.81 730.009L1363.81 730.038L1363.77 719.664C1363.77 718.6 1363.51 717.815 1363 717.311C1362.49 716.806 1361.87 716.555 1361.14 716.558C1360.22 716.562 1359.45 716.882 1358.82 717.518C1358.22 718.128 1357.92 719.016 1357.92 720.181L1357.96 730.061L1351.05 730.089L1350.97 711.318L1357.16 711.292L1357.48 713.343C1358.94 711.615 1360.91 710.771 1363.39 710.811C1365.6 710.827 1367.37 711.517 1368.72 712.879C1370.07 714.242 1370.75 716.481 1370.76 719.597L1370.81 730.009Z" fill="#533333"/>
<path d="M1020.95 822.476L1020.12 820.41L1014.48 820.432L1013.66 822.506L1009.88 822.521L1015.48 809.898L1019.08 809.884L1024.77 822.461L1020.95 822.476ZM1018.9 817.426L1017.28 813.419L1015.68 817.44L1018.9 817.426ZM1025.72 809.857L1031.12 809.835C1033.26 809.826 1034.89 810.401 1036.03 811.561C1037.16 812.708 1037.73 814.194 1037.74 816.018C1037.74 817.866 1037.18 819.398 1036.06 820.615C1034.95 821.819 1033.32 822.426 1031.17 822.435L1025.77 822.457L1025.72 809.857ZM1029.26 812.812L1029.29 819.436L1031.16 819.429C1032.22 819.424 1032.99 819.097 1033.48 818.447C1033.97 817.785 1034.21 816.968 1034.21 815.996C1034.2 815.06 1033.95 814.293 1033.44 813.695C1032.94 813.097 1032.17 812.8 1031.13 812.805L1029.26 812.812ZM1039.61 809.8L1045.01 809.778C1047.14 809.77 1048.78 810.345 1049.91 811.504C1051.04 812.652 1051.61 814.137 1051.62 815.961C1051.63 817.809 1051.07 819.342 1049.95 820.558C1048.84 821.763 1047.21 822.369 1045.06 822.378L1039.66 822.4L1039.61 809.8ZM1043.15 812.756L1043.18 819.38L1045.05 819.372C1046.1 819.368 1046.88 819.041 1047.37 818.391C1047.85 817.729 1048.1 816.912 1048.09 815.94C1048.09 815.004 1047.83 814.237 1047.33 813.639C1046.82 813.041 1046.05 812.744 1045.02 812.748L1043.15 812.756ZM1059.81 822.318L1059.77 812.652L1056.1 812.667L1056.09 809.733L1067 809.689L1067.01 812.623L1063.32 812.638L1063.36 822.304L1059.81 822.318ZM1079.75 811.095C1081.04 812.254 1081.69 813.865 1081.69 815.929C1081.7 817.993 1081.07 819.616 1079.79 820.797C1078.52 821.966 1076.83 822.555 1074.72 822.563C1072.62 822.572 1070.92 821.997 1069.64 820.838C1068.35 819.667 1067.7 818.05 1067.69 815.986C1067.68 813.946 1068.32 812.335 1069.6 811.154C1070.89 809.961 1072.58 809.36 1074.66 809.352C1076.78 809.343 1078.47 809.924 1079.75 811.095ZM1078.13 815.944C1078.13 814.864 1077.81 814.001 1077.18 813.355C1076.56 812.71 1075.72 812.389 1074.68 812.394C1073.66 812.398 1072.83 812.737 1072.2 813.412C1071.56 814.074 1071.25 814.928 1071.25 815.972C1071.26 817.028 1071.58 817.884 1072.22 818.542C1072.87 819.199 1073.7 819.526 1074.71 819.522C1075.74 819.517 1076.56 819.184 1077.19 818.521C1077.82 817.859 1078.13 817 1078.13 815.944ZM1096.81 818.19L1098.91 820.521C1097.59 821.834 1095.91 822.495 1093.86 822.504C1092.66 822.509 1091.6 822.339 1090.69 821.995C1089.79 821.638 1089.07 821.155 1088.54 820.545C1088.01 819.923 1087.61 819.235 1087.34 818.48C1087.08 817.713 1086.94 816.886 1086.94 815.998C1086.94 815.17 1087.07 814.365 1087.34 813.584C1087.63 812.803 1088.04 812.093 1088.58 811.455C1089.11 810.805 1089.83 810.286 1090.73 809.898C1091.64 809.499 1092.67 809.296 1093.81 809.292C1095.68 809.284 1097.31 809.95 1098.69 811.288L1096.5 813.457C1095.73 812.728 1094.84 812.366 1093.82 812.37C1092.7 812.374 1091.86 812.75 1091.28 813.496C1090.72 814.23 1090.45 815.065 1090.47 816.001C1090.48 816.949 1090.76 817.77 1091.3 818.464C1091.86 819.146 1092.71 819.484 1093.85 819.48C1094.31 819.478 1094.82 819.374 1095.36 819.168C1095.91 818.949 1096.39 818.623 1096.81 818.19ZM1109.9 822.114L1109.06 820.048L1103.43 820.071L1102.61 822.144L1098.83 822.159L1104.43 809.537L1108.03 809.522L1113.71 822.099L1109.9 822.114ZM1107.84 817.065L1106.22 813.057L1104.62 817.078L1107.84 817.065ZM1126.38 821.831L1126.38 822.047L1122.46 822.063L1119.51 817.989L1118.27 817.994L1118.28 822.08L1114.72 822.095L1114.67 809.495L1120.82 809.47C1122.36 809.464 1123.56 809.879 1124.43 810.715C1125.3 811.552 1125.73 812.576 1125.74 813.788C1125.74 814.64 1125.54 815.379 1125.15 816.004C1124.77 816.618 1124.08 817.149 1123.09 817.597L1126.38 821.831ZM1120.83 812.314L1118.24 812.324L1118.25 815.348L1120.88 815.338C1121.33 815.336 1121.66 815.197 1121.89 814.92C1122.12 814.631 1122.23 814.282 1122.23 813.874C1122.22 813.442 1122.1 813.077 1121.86 812.778C1121.62 812.467 1121.28 812.312 1120.83 812.314ZM1130.46 822.031L1130.42 812.365L1126.75 812.38L1126.74 809.446L1137.64 809.401L1137.66 812.335L1133.97 812.35L1134.01 822.016L1130.46 822.031Z" fill="#533333"/>
<path d="M1253.03 822.638L1252.19 820.572L1246.56 820.595L1245.74 822.668L1241.96 822.684L1247.56 810.061L1251.16 810.046L1256.84 822.623L1253.03 822.638ZM1250.97 817.589L1249.35 813.581L1247.75 817.602L1250.97 817.589ZM1257.8 810.019L1263.2 809.997C1265.33 809.988 1266.97 810.564 1268.1 811.723C1269.23 812.871 1269.8 814.356 1269.81 816.18C1269.82 818.028 1269.26 819.56 1268.14 820.777C1267.03 821.982 1265.4 822.588 1263.25 822.597L1257.85 822.619L1257.8 810.019ZM1261.34 812.975L1261.36 819.599L1263.24 819.591C1264.29 819.587 1265.06 819.26 1265.55 818.61C1266.04 817.948 1266.29 817.131 1266.28 816.159C1266.28 815.223 1266.02 814.456 1265.52 813.858C1265.01 813.26 1264.24 812.963 1263.21 812.967L1261.34 812.975ZM1271.68 809.963L1277.08 809.941C1279.22 809.932 1280.85 810.507 1281.99 811.667C1283.12 812.814 1283.69 814.3 1283.7 816.124C1283.7 817.972 1283.15 819.504 1282.02 820.721C1280.91 821.925 1279.28 822.532 1277.14 822.54L1271.74 822.562L1271.68 809.963ZM1275.22 812.918L1275.25 819.542L1277.12 819.534C1278.18 819.53 1278.95 819.203 1279.44 818.553C1279.93 817.891 1280.17 817.074 1280.17 816.102C1280.17 815.166 1279.91 814.399 1279.4 813.801C1278.9 813.203 1278.13 812.906 1277.1 812.911L1275.22 812.918ZM1291.89 822.48L1291.85 812.815L1288.18 812.829L1288.17 809.895L1299.07 809.851L1299.09 812.785L1295.4 812.8L1295.44 822.466L1291.89 822.48ZM1311.82 811.257C1313.11 812.416 1313.76 814.027 1313.77 816.091C1313.78 818.155 1313.14 819.778 1311.86 820.959C1310.6 822.128 1308.91 822.717 1306.79 822.726C1304.69 822.734 1303 822.159 1301.71 821C1300.42 819.83 1299.77 818.212 1299.77 816.148C1299.76 814.108 1300.39 812.498 1301.67 811.317C1302.96 810.123 1304.65 809.522 1306.74 809.514C1308.85 809.505 1310.55 810.086 1311.82 811.257ZM1310.2 816.106C1310.2 815.026 1309.89 814.163 1309.26 813.518C1308.63 812.872 1307.8 812.552 1306.75 812.556C1305.73 812.56 1304.91 812.899 1304.27 813.574C1303.64 814.237 1303.32 815.09 1303.33 816.134C1303.33 817.19 1303.65 818.047 1304.29 818.704C1304.94 819.361 1305.77 819.688 1306.78 819.684C1307.81 819.68 1308.64 819.346 1309.26 818.684C1309.89 818.021 1310.21 817.162 1310.2 816.106ZM1337.09 809.697L1332.55 822.297L1329.66 822.309L1327.4 816.288L1325.26 822.327L1322.38 822.338L1317.63 809.776L1321.52 809.76L1323.16 814.181C1323.34 814.732 1323.57 815.704 1323.84 817.094L1326.13 809.741L1328.6 809.731L1331.02 817.065C1331.2 816.093 1331.43 815.09 1331.71 814.056L1333.2 809.712L1337.09 809.697ZM1341.87 822.277L1338.32 822.292L1338.27 809.692L1341.82 809.677L1341.87 822.277ZM1353.9 810.87L1352.14 813.127C1351.37 812.554 1350.39 812.27 1349.19 812.275C1348.71 812.277 1348.3 812.357 1347.96 812.514C1347.64 812.672 1347.48 812.906 1347.48 813.218C1347.48 813.614 1347.64 813.884 1347.97 814.026C1348.29 814.157 1348.83 814.257 1349.57 814.326C1350.26 814.395 1350.88 814.518 1351.45 814.696C1352.01 814.862 1352.54 815.1 1353.05 815.41C1353.57 815.72 1353.97 816.138 1354.26 816.665C1354.55 817.18 1354.7 817.785 1354.7 818.481C1354.7 819.393 1354.44 820.168 1353.9 820.806C1353.36 821.444 1352.69 821.903 1351.87 822.182C1351.07 822.45 1350.18 822.591 1349.19 822.607C1347.97 822.624 1346.93 822.485 1346.08 822.188C1345.22 821.88 1344.38 821.289 1343.55 820.416L1345.5 818.158C1346.48 819.102 1347.71 819.571 1349.2 819.565C1349.8 819.563 1350.28 819.465 1350.64 819.272C1351 819.066 1351.17 818.789 1351.17 818.441C1351.17 817.805 1350.47 817.424 1349.06 817.298C1348.29 817.229 1347.63 817.13 1347.08 817C1346.53 816.858 1345.99 816.644 1345.48 816.358C1344.97 816.073 1344.59 815.672 1344.32 815.157C1344.05 814.63 1343.92 813.989 1343.92 813.233C1343.91 811.985 1344.42 811.035 1345.43 810.383C1346.46 809.73 1347.71 809.401 1349.17 809.395C1351.05 809.388 1352.62 809.879 1353.9 810.87ZM1368.04 822.189L1364.51 822.203L1364.49 817.433L1359.95 817.452L1359.97 822.222L1356.41 822.236L1356.36 809.636L1359.92 809.622L1359.94 814.41L1364.48 814.391L1364.46 809.603L1367.98 809.589L1368.04 822.189ZM1370.54 809.56L1374.11 809.546L1374.15 819.122L1380.18 819.097L1380.19 822.121L1370.59 822.16L1370.54 809.56ZM1385.3 822.101L1381.76 822.115L1381.7 809.515L1385.25 809.501L1385.3 822.101ZM1397.33 810.694L1395.58 812.951C1394.81 812.378 1393.82 812.094 1392.62 812.099C1392.14 812.101 1391.73 812.18 1391.4 812.338C1391.07 812.495 1390.91 812.73 1390.91 813.042C1390.92 813.438 1391.08 813.707 1391.4 813.85C1391.73 813.98 1392.26 814.08 1393.01 814.149C1393.69 814.218 1394.32 814.342 1394.88 814.52C1395.45 814.685 1395.98 814.923 1396.49 815.233C1397 815.543 1397.41 815.961 1397.7 816.488C1397.99 817.003 1398.13 817.608 1398.14 818.304C1398.14 819.216 1397.87 819.991 1397.34 820.63C1396.8 821.268 1396.12 821.727 1395.31 822.006C1394.5 822.273 1393.61 822.415 1392.63 822.431C1391.4 822.448 1390.36 822.308 1389.51 822.011C1388.66 821.703 1387.82 821.112 1386.98 820.24L1388.94 817.982C1389.91 818.926 1391.14 819.395 1392.63 819.389C1393.23 819.386 1393.71 819.288 1394.07 819.095C1394.43 818.889 1394.61 818.613 1394.61 818.265C1394.61 817.629 1393.9 817.248 1392.5 817.121C1391.73 817.052 1391.07 816.953 1390.52 816.823C1389.96 816.682 1389.43 816.468 1388.91 816.182C1388.41 815.896 1388.02 815.495 1387.75 814.981C1387.49 814.454 1387.35 813.812 1387.35 813.056C1387.35 811.808 1387.85 810.858 1388.87 810.206C1389.9 809.554 1391.14 809.225 1392.61 809.219C1394.48 809.211 1396.05 809.703 1397.33 810.694ZM1402.38 822.031L1402.35 812.365L1398.67 812.38L1398.66 809.446L1409.57 809.402L1409.58 812.336L1405.89 812.351L1405.93 822.017L1402.38 822.031Z" fill="#533333"/>
</svg>
